<svg width="96" height="64" viewBox="0 0 96 64" xmlns="http://www.w3.org/2000/svg">
  <!-- Direk -->
  <rect x="8" y="4" width="4" height="56" fill="black"></rect>
  
  <!-- Bayrak alanı -->
  <g transform="translate(12, 4)">
    <!-- Satır 1 -->
    <rect x="0" y="0" width="8" height="8" fill="black"></rect>
    <rect x="8" y="0" width="8" height="8" fill="white"></rect>
    <rect x="16" y="0" width="8" height="8" fill="black"></rect>
    <rect x="24" y="0" width="8" height="8" fill="white"></rect>
    <rect x="32" y="0" width="8" height="8" fill="black"></rect>
    <rect x="40" y="0" width="8" height="8" fill="white"></rect>
    <!-- Satır 2 -->
    <rect x="0" y="8" width="8" height="8" fill="white"></rect>
    <rect x="8" y="8" width="8" height="8" fill="black"></rect>
    <rect x="16" y="8" width="8" height="8" fill="white"></rect>
    <rect x="24" y="8" width="8" height="8" fill="black"></rect>
    <rect x="32" y="8" width="8" height="8" fill="white"></rect>
    <rect x="40" y="8" width="8" height="8" fill="black"></rect>
    <!-- Satır 3 -->
    <rect x="0" y="16" width="8" height="8" fill="black"></rect>
    <rect x="8" y="16" width="8" height="8" fill="white"></rect>
    <rect x="16" y="16" width="8" height="8" fill="black"></rect>
    <rect x="24" y="16" width="8" height="8" fill="white"></rect>
    <rect x="32" y="16" width="8" height="8" fill="black"></rect>
    <rect x="40" y="16" width="8" height="8" fill="white"></rect>
    <!-- Satır 4 -->
    <rect x="0" y="24" width="8" height="8" fill="white"></rect>
    <rect x="8" y="24" width="8" height="8" fill="black"></rect>
    <rect x="16" y="24" width="8" height="8" fill="white"></rect>
    <rect x="24" y="24" width="8" height="8" fill="black"></rect>
    <rect x="32" y="24" width="8" height="8" fill="white"></rect>
    <rect x="40" y="24" width="8" height="8" fill="black"></rect>
  </g>
</svg>
